<?xml version="1.0" encoding="UTF-8" standalone="no"?>
<!DOCTYPE svg PUBLIC "-//W3C//DTD SVG 1.1//EN"
 "http://www.w3.org/Graphics/SVG/1.1/DTD/svg11.dtd">
<!-- Generated by graphviz version 2.50.0 (0)
 -->
<!-- Pages: 1 -->
<svg width="292pt" height="986pt"
 viewBox="0.00 0.00 291.98 986.00" xmlns="http://www.w3.org/2000/svg" xmlns:xlink="http://www.w3.org/1999/xlink">
<g id="graph0" class="graph" transform="scale(1 1) rotate(0) translate(4 982)">
<polygon fill="white" stroke="transparent" points="-4,4 -4,-982 287.98,-982 287.98,4 -4,4"/>
<!-- A -->
<g id="node1" class="node">
<title>A</title>
<ellipse fill="none" stroke="black" cx="141.99" cy="-960" rx="27.1" ry="18"/>
<text text-anchor="middle" x="141.99" y="-956.3" font-family="Times New Roman,serif" font-size="14.00">Start</text>
</g>
<!-- B -->
<g id="node2" class="node">
<title>B</title>
<polygon fill="none" stroke="black" points="268.97,-906 66.97,-906 15.01,-870 217.01,-870 268.97,-906"/>
<text text-anchor="middle" x="141.99" y="-884.3" font-family="Times New Roman,serif" font-size="14.00">Read Encrypted Data</text>
</g>
<!-- A&#45;&gt;B -->
<g id="edge1" class="edge">
<title>A&#45;&gt;B</title>
<path fill="none" stroke="black" d="M141.99,-941.7C141.99,-933.98 141.99,-924.71 141.99,-916.11"/>
<polygon fill="black" stroke="black" points="145.49,-916.1 141.99,-906.1 138.49,-916.1 145.49,-916.1"/>
</g>
<!-- C -->
<g id="node3" class="node">
<title>C</title>
<polygon fill="none" stroke="black" points="264.49,-834 19.49,-834 19.49,-796 264.49,-796 264.49,-834"/>
<text text-anchor="middle" x="141.99" y="-818.8" font-family="Times New Roman,serif" font-size="14.00">Parse Ephemeral Data, Param Ciphertext,</text>
<text text-anchor="middle" x="141.99" y="-803.8" font-family="Times New Roman,serif" font-size="14.00">and Final Ciphertext</text>
</g>
<!-- B&#45;&gt;C -->
<g id="edge2" class="edge">
<title>B&#45;&gt;C</title>
<path fill="none" stroke="black" d="M141.99,-869.81C141.99,-862.11 141.99,-852.82 141.99,-844.15"/>
<polygon fill="black" stroke="black" points="145.49,-844.02 141.99,-834.02 138.49,-844.02 145.49,-844.02"/>
</g>
<!-- D -->
<g id="node4" class="node">
<title>D</title>
<polygon fill="none" stroke="black" points="232.99,-760 50.99,-760 50.99,-722 232.99,-722 232.99,-760"/>
<text text-anchor="middle" x="141.99" y="-744.8" font-family="Times New Roman,serif" font-size="14.00">RSA Decrypt Ephemeral Data</text>
<text text-anchor="middle" x="141.99" y="-729.8" font-family="Times New Roman,serif" font-size="14.00">(Recover AES Key &amp; IV)</text>
</g>
<!-- C&#45;&gt;D -->
<g id="edge3" class="edge">
<title>C&#45;&gt;D</title>
<path fill="none" stroke="black" d="M141.99,-795.83C141.99,-788.13 141.99,-778.97 141.99,-770.42"/>
<polygon fill="black" stroke="black" points="145.49,-770.41 141.99,-760.41 138.49,-770.41 145.49,-770.41"/>
</g>
<!-- E -->
<g id="node5" class="node">
<title>E</title>
<polygon fill="none" stroke="black" points="236.99,-686 46.99,-686 46.99,-648 236.99,-648 236.99,-686"/>
<text text-anchor="middle" x="141.99" y="-670.8" font-family="Times New Roman,serif" font-size="14.00">AES&#45;GCM Decrypt Parameters</text>
<text text-anchor="middle" x="141.99" y="-655.8" font-family="Times New Roman,serif" font-size="14.00">(using Tag)</text>
</g>
<!-- D&#45;&gt;E -->
<g id="edge4" class="edge">
<title>D&#45;&gt;E</title>
<path fill="none" stroke="black" d="M141.99,-721.83C141.99,-714.13 141.99,-704.97 141.99,-696.42"/>
<polygon fill="black" stroke="black" points="145.49,-696.41 141.99,-686.41 138.49,-696.41 145.49,-696.41"/>
</g>
<!-- F -->
<g id="node6" class="node">
<title>F</title>
<polygon fill="none" stroke="black" points="226.99,-612 56.99,-612 56.99,-576 226.99,-576 226.99,-612"/>
<text text-anchor="middle" x="141.99" y="-590.3" font-family="Times New Roman,serif" font-size="14.00">Validate Parameter Integrity</text>
</g>
<!-- E&#45;&gt;F -->
<g id="edge5" class="edge">
<title>E&#45;&gt;F</title>
<path fill="none" stroke="black" d="M141.99,-647.72C141.99,-639.97 141.99,-630.79 141.99,-622.27"/>
<polygon fill="black" stroke="black" points="145.49,-622 141.99,-612 138.49,-622 145.49,-622"/>
</g>
<!-- G -->
<g id="node7" class="node">
<title>G</title>
<polygon fill="none" stroke="black" points="238.49,-540 45.49,-540 45.49,-504 238.49,-504 238.49,-540"/>
<text text-anchor="middle" x="141.99" y="-518.3" font-family="Times New Roman,serif" font-size="14.00">Apply Vernam Cipher (Reverse)</text>
</g>
<!-- F&#45;&gt;G -->
<g id="edge6" class="edge">
<title>F&#45;&gt;G</title>
<path fill="none" stroke="black" d="M141.99,-575.7C141.99,-567.98 141.99,-558.71 141.99,-550.11"/>
<polygon fill="black" stroke="black" points="145.49,-550.1 141.99,-540.1 138.49,-550.1 145.49,-550.1"/>
</g>
<!-- H -->
<g id="node8" class="node">
<title>H</title>
<polygon fill="none" stroke="black" points="241.49,-468 42.49,-468 42.49,-432 241.49,-432 241.49,-468"/>
<text text-anchor="middle" x="141.99" y="-446.3" font-family="Times New Roman,serif" font-size="14.00">Apply Vigenere Cipher (Reverse)</text>
</g>
<!-- G&#45;&gt;H -->
<g id="edge7" class="edge">
<title>G&#45;&gt;H</title>
<path fill="none" stroke="black" d="M141.99,-503.7C141.99,-495.98 141.99,-486.71 141.99,-478.11"/>
<polygon fill="black" stroke="black" points="145.49,-478.1 141.99,-468.1 138.49,-478.1 145.49,-478.1"/>
</g>
<!-- I -->
<g id="node9" class="node">
<title>I</title>
<polygon fill="none" stroke="black" points="257.49,-396 26.49,-396 26.49,-360 257.49,-360 257.49,-396"/>
<text text-anchor="middle" x="141.99" y="-374.3" font-family="Times New Roman,serif" font-size="14.00">Apply Polyalphabetic Cipher (Reverse)</text>
</g>
<!-- H&#45;&gt;I -->
<g id="edge8" class="edge">
<title>H&#45;&gt;I</title>
<path fill="none" stroke="black" d="M141.99,-431.7C141.99,-423.98 141.99,-414.71 141.99,-406.11"/>
<polygon fill="black" stroke="black" points="145.49,-406.1 141.99,-396.1 138.49,-406.1 145.49,-406.1"/>
</g>
<!-- J -->
<g id="node10" class="node">
<title>J</title>
<polygon fill="none" stroke="black" points="261.49,-324 22.49,-324 22.49,-288 261.49,-288 261.49,-324"/>
<text text-anchor="middle" x="141.99" y="-302.3" font-family="Times New Roman,serif" font-size="14.00">Apply Monoalphabetic Cipher (Reverse)</text>
</g>
<!-- I&#45;&gt;J -->
<g id="edge9" class="edge">
<title>I&#45;&gt;J</title>
<path fill="none" stroke="black" d="M141.99,-359.7C141.99,-351.98 141.99,-342.71 141.99,-334.11"/>
<polygon fill="black" stroke="black" points="145.49,-334.1 141.99,-324.1 138.49,-334.1 145.49,-334.1"/>
</g>
<!-- K -->
<g id="node11" class="node">
<title>K</title>
<polygon fill="none" stroke="black" points="253.99,-252 29.99,-252 29.99,-216 253.99,-216 253.99,-252"/>
<text text-anchor="middle" x="141.99" y="-230.3" font-family="Times New Roman,serif" font-size="14.00">Apply Transposition Cipher (Reverse)</text>
</g>
<!-- J&#45;&gt;K -->
<g id="edge10" class="edge">
<title>J&#45;&gt;K</title>
<path fill="none" stroke="black" d="M141.99,-287.7C141.99,-279.98 141.99,-270.71 141.99,-262.11"/>
<polygon fill="black" stroke="black" points="145.49,-262.1 141.99,-252.1 138.49,-262.1 145.49,-262.1"/>
</g>
<!-- L -->
<g id="node12" class="node">
<title>L</title>
<polygon fill="none" stroke="black" points="197.49,-180 86.49,-180 86.49,-144 197.49,-144 197.49,-180"/>
<text text-anchor="middle" x="141.99" y="-158.3" font-family="Times New Roman,serif" font-size="14.00">Verify Data Hash</text>
</g>
<!-- K&#45;&gt;L -->
<g id="edge11" class="edge">
<title>K&#45;&gt;L</title>
<path fill="none" stroke="black" d="M141.99,-215.7C141.99,-207.98 141.99,-198.71 141.99,-190.11"/>
<polygon fill="black" stroke="black" points="145.49,-190.1 141.99,-180.1 138.49,-190.1 145.49,-190.1"/>
</g>
<!-- M -->
<g id="node13" class="node">
<title>M</title>
<polygon fill="none" stroke="black" points="283.96,-108 58.11,-108 0.01,-72 225.86,-72 283.96,-108"/>
<text text-anchor="middle" x="141.99" y="-86.3" font-family="Times New Roman,serif" font-size="14.00">Write Decrypted Output</text>
</g>
<!-- L&#45;&gt;M -->
<g id="edge12" class="edge">
<title>L&#45;&gt;M</title>
<path fill="none" stroke="black" d="M141.99,-143.7C141.99,-135.98 141.99,-126.71 141.99,-118.11"/>
<polygon fill="black" stroke="black" points="145.49,-118.1 141.99,-108.1 138.49,-118.1 145.49,-118.1"/>
</g>
<!-- N -->
<g id="node14" class="node">
<title>N</title>
<ellipse fill="none" stroke="black" cx="141.99" cy="-18" rx="27" ry="18"/>
<text text-anchor="middle" x="141.99" y="-14.3" font-family="Times New Roman,serif" font-size="14.00">End</text>
</g>
<!-- M&#45;&gt;N -->
<g id="edge13" class="edge">
<title>M&#45;&gt;N</title>
<path fill="none" stroke="black" d="M141.99,-71.7C141.99,-63.98 141.99,-54.71 141.99,-46.11"/>
<polygon fill="black" stroke="black" points="145.49,-46.1 141.99,-36.1 138.49,-46.1 145.49,-46.1"/>
</g>
</g>
</svg>
