<?xml version="1.0" encoding="UTF-8" standalone="no"?>
<!DOCTYPE svg PUBLIC "-//W3C//DTD SVG 1.1//EN"
 "http://www.w3.org/Graphics/SVG/1.1/DTD/svg11.dtd">
<!-- Generated by graphviz version 2.50.0 (0)
 -->
<!-- Pages: 1 -->
<svg width="290pt" height="1071pt"
 viewBox="0.00 0.00 290.07 1071.00" xmlns="http://www.w3.org/2000/svg" xmlns:xlink="http://www.w3.org/1999/xlink">
<g id="graph0" class="graph" transform="scale(1 1) rotate(0) translate(4 1067)">
<polygon fill="white" stroke="transparent" points="-4,4 -4,-1067 286.07,-1067 286.07,4 -4,4"/>
<!-- A -->
<g id="node1" class="node">
<title>A</title>
<ellipse fill="none" stroke="black" cx="141.04" cy="-1045" rx="27.1" ry="18"/>
<text text-anchor="middle" x="141.04" y="-1041.3" font-family="Times New Roman,serif" font-size="14.00">Start</text>
</g>
<!-- B -->
<g id="node2" class="node">
<title>B</title>
<polygon fill="none" stroke="black" points="260.27,-991 70.59,-991 21.8,-955 211.48,-955 260.27,-991"/>
<text text-anchor="middle" x="141.04" y="-969.3" font-family="Times New Roman,serif" font-size="14.00">Read Plaintext Data</text>
</g>
<!-- A&#45;&gt;B -->
<g id="edge1" class="edge">
<title>A&#45;&gt;B</title>
<path fill="none" stroke="black" d="M141.04,-1026.7C141.04,-1018.98 141.04,-1009.71 141.04,-1001.11"/>
<polygon fill="black" stroke="black" points="144.54,-1001.1 141.04,-991.1 137.54,-1001.1 144.54,-1001.1"/>
</g>
<!-- C -->
<g id="node3" class="node">
<title>C</title>
<polygon fill="none" stroke="black" points="225.04,-919 57.04,-919 57.04,-883 225.04,-883 225.04,-919"/>
<text text-anchor="middle" x="141.04" y="-897.3" font-family="Times New Roman,serif" font-size="14.00">Apply Transposition Cipher</text>
</g>
<!-- B&#45;&gt;C -->
<g id="edge2" class="edge">
<title>B&#45;&gt;C</title>
<path fill="none" stroke="black" d="M141.04,-954.7C141.04,-946.98 141.04,-937.71 141.04,-929.11"/>
<polygon fill="black" stroke="black" points="144.54,-929.1 141.04,-919.1 137.54,-929.1 144.54,-929.1"/>
</g>
<!-- D -->
<g id="node4" class="node">
<title>D</title>
<polygon fill="none" stroke="black" points="232.54,-847 49.54,-847 49.54,-811 232.54,-811 232.54,-847"/>
<text text-anchor="middle" x="141.04" y="-825.3" font-family="Times New Roman,serif" font-size="14.00">Apply Monoalphabetic Cipher</text>
</g>
<!-- C&#45;&gt;D -->
<g id="edge3" class="edge">
<title>C&#45;&gt;D</title>
<path fill="none" stroke="black" d="M141.04,-882.7C141.04,-874.98 141.04,-865.71 141.04,-857.11"/>
<polygon fill="black" stroke="black" points="144.54,-857.1 141.04,-847.1 137.54,-857.1 144.54,-857.1"/>
</g>
<!-- E -->
<g id="node5" class="node">
<title>E</title>
<polygon fill="none" stroke="black" points="228.54,-775 53.54,-775 53.54,-739 228.54,-739 228.54,-775"/>
<text text-anchor="middle" x="141.04" y="-753.3" font-family="Times New Roman,serif" font-size="14.00">Apply Polyalphabetic Cipher</text>
</g>
<!-- D&#45;&gt;E -->
<g id="edge4" class="edge">
<title>D&#45;&gt;E</title>
<path fill="none" stroke="black" d="M141.04,-810.7C141.04,-802.98 141.04,-793.71 141.04,-785.11"/>
<polygon fill="black" stroke="black" points="144.54,-785.1 141.04,-775.1 137.54,-785.1 144.54,-785.1"/>
</g>
<!-- F -->
<g id="node6" class="node">
<title>F</title>
<polygon fill="none" stroke="black" points="212.54,-703 69.54,-703 69.54,-667 212.54,-667 212.54,-703"/>
<text text-anchor="middle" x="141.04" y="-681.3" font-family="Times New Roman,serif" font-size="14.00">Apply Vigenere Cipher</text>
</g>
<!-- E&#45;&gt;F -->
<g id="edge5" class="edge">
<title>E&#45;&gt;F</title>
<path fill="none" stroke="black" d="M141.04,-738.7C141.04,-730.98 141.04,-721.71 141.04,-713.11"/>
<polygon fill="black" stroke="black" points="144.54,-713.1 141.04,-703.1 137.54,-713.1 144.54,-713.1"/>
</g>
<!-- G -->
<g id="node7" class="node">
<title>G</title>
<polygon fill="none" stroke="black" points="209.54,-631 72.54,-631 72.54,-595 209.54,-595 209.54,-631"/>
<text text-anchor="middle" x="141.04" y="-609.3" font-family="Times New Roman,serif" font-size="14.00">Apply Vernam Cipher</text>
</g>
<!-- F&#45;&gt;G -->
<g id="edge6" class="edge">
<title>F&#45;&gt;G</title>
<path fill="none" stroke="black" d="M141.04,-666.7C141.04,-658.98 141.04,-649.71 141.04,-641.11"/>
<polygon fill="black" stroke="black" points="144.54,-641.1 141.04,-631.1 137.54,-641.1 144.54,-641.1"/>
</g>
<!-- H -->
<g id="node8" class="node">
<title>H</title>
<polygon fill="none" stroke="black" points="205.04,-559 77.04,-559 77.04,-523 205.04,-523 205.04,-559"/>
<text text-anchor="middle" x="141.04" y="-537.3" font-family="Times New Roman,serif" font-size="14.00">Compute Data Hash</text>
</g>
<!-- G&#45;&gt;H -->
<g id="edge7" class="edge">
<title>G&#45;&gt;H</title>
<path fill="none" stroke="black" d="M141.04,-594.7C141.04,-586.98 141.04,-577.71 141.04,-569.11"/>
<polygon fill="black" stroke="black" points="144.54,-569.1 141.04,-559.1 137.54,-569.1 144.54,-569.1"/>
</g>
<!-- I -->
<g id="node9" class="node">
<title>I</title>
<polygon fill="none" stroke="black" points="255.54,-487 26.54,-487 26.54,-451 255.54,-451 255.54,-487"/>
<text text-anchor="middle" x="141.04" y="-465.3" font-family="Times New Roman,serif" font-size="14.00">Serialize &amp; Prepare Cipher Parameters</text>
</g>
<!-- H&#45;&gt;I -->
<g id="edge8" class="edge">
<title>H&#45;&gt;I</title>
<path fill="none" stroke="black" d="M141.04,-522.7C141.04,-514.98 141.04,-505.71 141.04,-497.11"/>
<polygon fill="black" stroke="black" points="144.54,-497.1 141.04,-487.1 137.54,-497.1 144.54,-497.1"/>
</g>
<!-- J -->
<g id="node10" class="node">
<title>J</title>
<polygon fill="none" stroke="black" points="235.04,-415 47.04,-415 47.04,-379 235.04,-379 235.04,-415"/>
<text text-anchor="middle" x="141.04" y="-393.3" font-family="Times New Roman,serif" font-size="14.00">Generate Ephemeral Key &amp; IV</text>
</g>
<!-- I&#45;&gt;J -->
<g id="edge9" class="edge">
<title>I&#45;&gt;J</title>
<path fill="none" stroke="black" d="M141.04,-450.7C141.04,-442.98 141.04,-433.71 141.04,-425.11"/>
<polygon fill="black" stroke="black" points="144.54,-425.1 141.04,-415.1 137.54,-425.1 144.54,-425.1"/>
</g>
<!-- K -->
<g id="node11" class="node">
<title>K</title>
<polygon fill="none" stroke="black" points="249.04,-343 33.04,-343 33.04,-305 249.04,-305 249.04,-343"/>
<text text-anchor="middle" x="141.04" y="-327.8" font-family="Times New Roman,serif" font-size="14.00">Encrypt Parameters with AES&#45;GCM</text>
<text text-anchor="middle" x="141.04" y="-312.8" font-family="Times New Roman,serif" font-size="14.00">(Tag Produced)</text>
</g>
<!-- J&#45;&gt;K -->
<g id="edge10" class="edge">
<title>J&#45;&gt;K</title>
<path fill="none" stroke="black" d="M141.04,-378.81C141.04,-371.11 141.04,-361.82 141.04,-353.15"/>
<polygon fill="black" stroke="black" points="144.54,-353.02 141.04,-343.02 137.54,-353.02 144.54,-353.02"/>
</g>
<!-- L -->
<g id="node12" class="node">
<title>L</title>
<polygon fill="none" stroke="black" points="245.54,-269 36.54,-269 36.54,-233 245.54,-233 245.54,-269"/>
<text text-anchor="middle" x="141.04" y="-247.3" font-family="Times New Roman,serif" font-size="14.00">Encrypt Ephemeral Data with RSA</text>
</g>
<!-- K&#45;&gt;L -->
<g id="edge11" class="edge">
<title>K&#45;&gt;L</title>
<path fill="none" stroke="black" d="M141.04,-304.72C141.04,-296.97 141.04,-287.79 141.04,-279.27"/>
<polygon fill="black" stroke="black" points="144.54,-279 141.04,-269 137.54,-279 144.54,-279"/>
</g>
<!-- M -->
<g id="node13" class="node">
<title>M</title>
<polygon fill="none" stroke="black" points="253.04,-197 29.04,-197 29.04,-144 253.04,-144 253.04,-197"/>
<text text-anchor="middle" x="141.04" y="-181.8" font-family="Times New Roman,serif" font-size="14.00">Assemble Final Output Structure</text>
<text text-anchor="middle" x="141.04" y="-166.8" font-family="Times New Roman,serif" font-size="14.00">(including ciphertext,</text>
<text text-anchor="middle" x="141.04" y="-151.8" font-family="Times New Roman,serif" font-size="14.00">RSA&#45;wrapped data, param ciphertext)</text>
</g>
<!-- L&#45;&gt;M -->
<g id="edge12" class="edge">
<title>L&#45;&gt;M</title>
<path fill="none" stroke="black" d="M141.04,-232.97C141.04,-225.45 141.04,-216.31 141.04,-207.4"/>
<polygon fill="black" stroke="black" points="144.54,-207.16 141.04,-197.16 137.54,-207.16 144.54,-207.16"/>
</g>
<!-- N -->
<g id="node14" class="node">
<title>N</title>
<polygon fill="none" stroke="black" points="282.11,-108 57.69,-108 -0.04,-72 224.38,-72 282.11,-108"/>
<text text-anchor="middle" x="141.04" y="-86.3" font-family="Times New Roman,serif" font-size="14.00">Write Encrypted Output</text>
</g>
<!-- M&#45;&gt;N -->
<g id="edge13" class="edge">
<title>M&#45;&gt;N</title>
<path fill="none" stroke="black" d="M141.04,-143.8C141.04,-135.71 141.04,-126.76 141.04,-118.55"/>
<polygon fill="black" stroke="black" points="144.54,-118.33 141.04,-108.33 137.54,-118.33 144.54,-118.33"/>
</g>
<!-- O -->
<g id="node15" class="node">
<title>O</title>
<ellipse fill="none" stroke="black" cx="141.04" cy="-18" rx="27" ry="18"/>
<text text-anchor="middle" x="141.04" y="-14.3" font-family="Times New Roman,serif" font-size="14.00">End</text>
</g>
<!-- N&#45;&gt;O -->
<g id="edge14" class="edge">
<title>N&#45;&gt;O</title>
<path fill="none" stroke="black" d="M141.04,-71.7C141.04,-63.98 141.04,-54.71 141.04,-46.11"/>
<polygon fill="black" stroke="black" points="144.54,-46.1 141.04,-36.1 137.54,-46.1 144.54,-46.1"/>
</g>
</g>
</svg>
